<svg xmlns="http://www.w3.org/2000/svg" xmlns:xlink="http://www.w3.org/1999/xlink" width="500" zoomAndPan="magnify" viewBox="0 0 375 374.999991" height="500" preserveAspectRatio="xMidYMid meet" version="1.0"><defs><g/><clipPath id="a08e2f7d02"><path d="M 98.796875 37.5 L 226 37.5 L 226 165 L 98.796875 165 Z M 98.796875 37.5 " clip-rule="nonzero"/></clipPath><clipPath id="99aab8a87e"><path d="M 147 88 L 274.179688 88 L 274.179688 215.25 L 147 215.25 Z M 147 88 " clip-rule="nonzero"/></clipPath></defs><rect x="-37.5" width="450" fill="#ffffff" y="-37.499999" height="449.999989" fill-opacity="1"/><g clip-path="url(#a08e2f7d02)"><path fill="#5d51b4" d="M 195.367188 75.4375 C 192.273438 75.4375 189.292969 74.292969 186.96875 72.25 C 180.289062 66.378906 171.558594 62.800781 161.972656 62.800781 C 141.007812 62.800781 124.011719 79.800781 124.011719 100.765625 C 124.003906 121.730469 141.007812 138.71875 161.972656 138.71875 L 212.578125 138.71875 C 219.566406 138.71875 225.234375 144.382812 225.234375 151.371094 C 225.234375 158.359375 219.566406 164.027344 212.578125 164.027344 L 161.972656 164.027344 C 127.042969 164.023438 98.71875 135.699219 98.71875 100.761719 C 98.71875 65.816406 127.042969 37.515625 161.972656 37.5 C 177.96875 37.507812 192.582031 43.453125 203.722656 53.246094 C 212.5 60.964844 207.054688 75.4375 195.367188 75.4375 Z M 195.367188 75.4375 " fill-opacity="1" fill-rule="nonzero"/></g><g clip-path="url(#99aab8a87e)"><path fill="#09b7d3" d="M 177.347656 177.285156 C 180.441406 177.285156 183.417969 178.429688 185.742188 180.46875 C 192.421875 186.335938 201.144531 189.917969 210.738281 189.917969 C 231.757812 189.917969 248.785156 172.804688 248.6875 151.769531 C 248.589844 130.808594 231.277344 113.988281 210.316406 113.988281 L 160.128906 113.988281 C 153.140625 113.988281 147.476562 108.328125 147.476562 101.339844 C 147.476562 94.351562 153.140625 88.6875 160.128906 88.6875 L 210.742188 88.6875 C 245.664062 88.6875 274.003906 117.011719 274.003906 151.949219 C 274.003906 186.890625 245.667969 215.195312 210.742188 215.210938 C 194.742188 215.199219 180.132812 209.257812 169 199.464844 C 160.214844 191.753906 165.660156 177.285156 177.347656 177.285156 Z M 177.347656 177.285156 " fill-opacity="1" fill-rule="nonzero"/></g><g fill="#000000" fill-opacity="1"><g transform="translate(82.108593, 264.646432)"><g><path d="M 21.46875 -20.46875 L 21.46875 -14.0625 L 31.734375 -14.0625 C 30 -10.140625 26.140625 -7.53125 21.53125 -7.53125 C 15.25 -7.53125 10.390625 -12.390625 10.390625 -18.671875 C 10.390625 -24.953125 15.25 -29.8125 21.53125 -29.8125 C 25.953125 -29.8125 29.5625 -27.4375 31.421875 -23.890625 L 38.515625 -27.5625 C 35.28125 -33.671875 28.875 -37.828125 21.53125 -37.828125 C 10.890625 -37.828125 2.359375 -29.25 2.359375 -18.671875 C 2.359375 -8.09375 10.890625 0.5 21.53125 0.5 C 32.109375 0.5 40.703125 -8.09375 40.703125 -18.671875 L 40.703125 -20.46875 Z M 21.46875 -20.46875 "/></g></g></g><g fill="#000000" fill-opacity="1"><g transform="translate(124.173653, 264.646432)"><g><path d="M 15.8125 0.5 C 24.140625 0.5 29.625 -4.984375 29.625 -12.4375 C 29.625 -19.90625 24.140625 -25.390625 15.8125 -25.390625 C 7.46875 -25.390625 1.921875 -19.90625 1.921875 -12.4375 C 1.921875 -4.984375 7.46875 0.5 15.8125 0.5 Z M 15.8125 -6.53125 C 12.390625 -6.59375 9.890625 -9.078125 9.890625 -12.4375 C 9.890625 -15.8125 12.390625 -18.296875 15.8125 -18.359375 C 19.171875 -18.296875 21.71875 -15.8125 21.71875 -12.4375 C 21.71875 -9.078125 19.171875 -6.59375 15.8125 -6.53125 Z M 15.8125 -6.53125 "/></g></g></g><g fill="#000000" fill-opacity="1"><g transform="translate(154.789025, 264.646432)"><g><path d="M 3.921875 -10.203125 L 21.34375 -10.203125 L 21.34375 -15.6875 L 3.921875 -15.6875 Z M 3.921875 -10.203125 "/></g></g></g><g fill="#000000" fill-opacity="1"><g transform="translate(178.995069, 264.646432)"><g><path d="M 26.140625 -37.328125 L 17.234375 -10.640625 L 8.34375 -37.328125 L -0.8125 -37.328125 L 12.625 0 L 21.84375 0 L 35.28125 -37.328125 Z M 26.140625 -37.328125 "/></g></g></g><g fill="#000000" fill-opacity="1"><g transform="translate(212.472857, 264.646432)"><g><path d="M 15.8125 0.5 C 24.140625 0.5 29.625 -4.984375 29.625 -12.4375 C 29.625 -19.90625 24.140625 -25.390625 15.8125 -25.390625 C 7.46875 -25.390625 1.921875 -19.90625 1.921875 -12.4375 C 1.921875 -4.984375 7.46875 0.5 15.8125 0.5 Z M 15.8125 -6.53125 C 12.390625 -6.59375 9.890625 -9.078125 9.890625 -12.4375 C 9.890625 -15.8125 12.390625 -18.296875 15.8125 -18.359375 C 19.171875 -18.296875 21.71875 -15.8125 21.71875 -12.4375 C 21.71875 -9.078125 19.171875 -6.59375 15.8125 -6.53125 Z M 15.8125 -6.53125 "/></g></g></g><g fill="#000000" fill-opacity="1"><g transform="translate(243.088227, 264.646432)"><g><path d="M 18.671875 -18.734375 L 18.671875 -24.890625 L 12.75 -24.890625 L 12.75 -34.46875 L 4.859375 -34.46875 L 4.859375 -24.890625 L 0.6875 -24.890625 L 0.6875 -18.734375 L 4.859375 -18.734375 L 4.859375 -8.890625 C 4.859375 -3.609375 9.328125 0.5 14.625 0.5 C 16.296875 0.5 17.984375 0.125 18.609375 -0.3125 L 18.609375 -6.46875 L 15.625 -6.46875 C 13.9375 -6.46875 12.75 -7.78125 12.75 -9.828125 L 12.75 -18.734375 Z M 18.671875 -18.734375 "/></g></g></g><g fill="#000000" fill-opacity="1"><g transform="translate(262.005013, 264.646432)"><g><path d="M 29 -12.5 C 29 -20.28125 23.640625 -25.453125 15.625 -25.453125 C 7.59375 -25.453125 1.921875 -20.21875 1.921875 -12.4375 C 1.921875 -4.671875 7.53125 0.5 15.875 0.5 C 22.78125 0.5 27.375 -3.171875 28.625 -8.59375 L 20.96875 -8.59375 C 20.28125 -6.59375 18.484375 -5.40625 15.75 -5.40625 C 12.140625 -5.40625 10.265625 -7.59375 9.953125 -11.140625 L 29 -11.140625 Z M 15.75 -19.359375 C 18.421875 -19.359375 19.96875 -18.109375 20.78125 -15.9375 L 10.453125 -15.9375 C 11.265625 -18.046875 12.9375 -19.359375 15.75 -19.359375 Z M 15.75 -19.359375 "/></g></g></g><g fill="#ff0074" fill-opacity="1"><g transform="translate(104.563803, 287.188078)"><g><path d="M 6.296875 -5.8125 L 3.953125 -5.8125 L 3.953125 0 L 2.5625 0 L 2.5625 -5.8125 L 0.234375 -5.8125 L 0.234375 -6.90625 L 6.296875 -6.90625 Z M 6.296875 -5.8125 "/></g></g></g><g fill="#ff0074" fill-opacity="1"><g transform="translate(111.991342, 287.188078)"><g><path d="M 3.34375 -5.453125 C 3.488281 -5.453125 3.617188 -5.4375 3.734375 -5.40625 L 3.734375 -4.296875 C 3.140625 -4.335938 2.703125 -4.210938 2.421875 -3.921875 C 2.148438 -3.628906 2.015625 -3.132812 2.015625 -2.4375 L 2.015625 0 L 0.625 0 L 0.625 -5.3125 L 2.015625 -5.3125 L 2.015625 -4.34375 L 2.4375 -5.09375 C 2.6875 -5.332031 2.988281 -5.453125 3.34375 -5.453125 Z M 3.34375 -5.453125 "/></g></g></g><g fill="#ff0074" fill-opacity="1"><g transform="translate(116.989839, 287.188078)"><g><path d="M 3.71875 0 L 3.625 -0.78125 L 3.359375 -0.203125 C 3.015625 0.0234375 2.578125 0.140625 2.046875 0.140625 C 1.554688 0.140625 1.144531 0.00390625 0.8125 -0.265625 C 0.488281 -0.546875 0.328125 -0.925781 0.328125 -1.40625 C 0.328125 -2 0.570312 -2.453125 1.0625 -2.765625 C 1.5625 -3.078125 2.296875 -3.234375 3.265625 -3.234375 L 3.59375 -3.234375 L 3.59375 -3.34375 C 3.59375 -3.5625 3.585938 -3.726562 3.578125 -3.84375 C 3.535156 -4.269531 3.265625 -4.484375 2.765625 -4.484375 C 2.210938 -4.484375 1.914062 -4.1875 1.875 -3.59375 L 0.53125 -3.578125 C 0.550781 -4.160156 0.769531 -4.617188 1.1875 -4.953125 C 1.613281 -5.285156 2.15625 -5.453125 2.8125 -5.453125 C 4.132812 -5.453125 4.84375 -4.929688 4.9375 -3.890625 C 4.957031 -3.640625 4.96875 -3.363281 4.96875 -3.0625 L 4.96875 -1.34375 C 4.96875 -0.9375 5 -0.488281 5.0625 0 Z M 2.5625 -0.828125 C 2.863281 -0.828125 3.109375 -0.925781 3.296875 -1.125 C 3.492188 -1.332031 3.59375 -1.609375 3.59375 -1.953125 L 3.59375 -2.390625 C 2.375 -2.472656 1.765625 -2.179688 1.765625 -1.515625 C 1.765625 -1.054688 2.03125 -0.828125 2.5625 -0.828125 Z M 2.5625 -0.828125 "/></g></g></g><g fill="#ff0074" fill-opacity="1"><g transform="translate(123.807615, 287.188078)"><g><path d="M 5.59375 -3.96875 C 5.613281 -3.726562 5.625 -3.40625 5.625 -3 L 5.625 0 L 4.25 0 L 4.25 -2.8125 C 4.25 -3.125 4.242188 -3.367188 4.234375 -3.546875 C 4.179688 -4.171875 3.835938 -4.484375 3.203125 -4.484375 C 2.847656 -4.484375 2.5625 -4.316406 2.34375 -3.984375 C 2.125 -3.648438 2.015625 -3.132812 2.015625 -2.4375 L 2.015625 0 L 0.625 0 L 0.625 -5.3125 L 2.015625 -5.3125 L 2.015625 -4.453125 L 2.421875 -5.09375 C 2.765625 -5.332031 3.191406 -5.453125 3.703125 -5.453125 C 4.265625 -5.453125 4.707031 -5.320312 5.03125 -5.0625 C 5.351562 -4.8125 5.539062 -4.445312 5.59375 -3.96875 Z M 5.59375 -3.96875 "/></g></g></g><g fill="#ff0074" fill-opacity="1"><g transform="translate(131.21516, 287.188078)"><g><path d="M 2.53125 -5.453125 C 3.144531 -5.453125 3.632812 -5.300781 4 -5 C 4.363281 -4.695312 4.578125 -4.289062 4.640625 -3.78125 L 3.265625 -3.78125 C 3.171875 -4.289062 2.894531 -4.546875 2.4375 -4.546875 C 2.238281 -4.546875 2.082031 -4.492188 1.96875 -4.390625 C 1.863281 -4.285156 1.8125 -4.148438 1.8125 -3.984375 C 1.8125 -3.785156 1.898438 -3.625 2.078125 -3.5 C 2.253906 -3.375 2.566406 -3.257812 3.015625 -3.15625 C 3.597656 -3.007812 4.03125 -2.804688 4.3125 -2.546875 C 4.601562 -2.285156 4.75 -1.921875 4.75 -1.453125 C 4.75 -0.941406 4.539062 -0.546875 4.125 -0.265625 C 3.71875 0.00390625 3.195312 0.140625 2.5625 0.140625 C 1.894531 0.140625 1.351562 -0.00390625 0.9375 -0.296875 C 0.519531 -0.585938 0.273438 -1.03125 0.203125 -1.625 L 1.59375 -1.625 C 1.644531 -1.34375 1.757812 -1.128906 1.9375 -0.984375 C 2.113281 -0.835938 2.328125 -0.765625 2.578125 -0.765625 C 2.816406 -0.765625 3.003906 -0.8125 3.140625 -0.90625 C 3.285156 -1.007812 3.359375 -1.15625 3.359375 -1.34375 C 3.359375 -1.550781 3.257812 -1.71875 3.0625 -1.84375 C 2.875 -1.976562 2.550781 -2.101562 2.09375 -2.21875 C 1.550781 -2.351562 1.132812 -2.546875 0.84375 -2.796875 C 0.5625 -3.046875 0.421875 -3.382812 0.421875 -3.8125 C 0.421875 -4.320312 0.609375 -4.722656 0.984375 -5.015625 C 1.367188 -5.304688 1.882812 -5.453125 2.53125 -5.453125 Z M 2.53125 -5.453125 "/></g></g></g><g fill="#ff0074" fill-opacity="1"><g transform="translate(137.383196, 287.188078)"><g><path d="M 3.796875 -5.453125 C 4.523438 -5.453125 5.097656 -5.203125 5.515625 -4.703125 C 5.941406 -4.203125 6.15625 -3.554688 6.15625 -2.765625 C 6.15625 -1.835938 5.910156 -1.117188 5.421875 -0.609375 C 4.941406 -0.109375 4.335938 0.140625 3.609375 0.140625 C 3.066406 0.140625 2.648438 0.0390625 2.359375 -0.15625 L 2.015625 -0.703125 L 2.015625 1.953125 L 0.625 1.953125 L 0.625 -5.3125 L 2.015625 -5.3125 L 2.015625 -4.515625 L 2.40625 -5.09375 C 2.71875 -5.332031 3.179688 -5.453125 3.796875 -5.453125 Z M 3.34375 -0.828125 C 3.75 -0.828125 4.082031 -0.984375 4.34375 -1.296875 C 4.601562 -1.617188 4.734375 -2.078125 4.734375 -2.671875 C 4.734375 -3.210938 4.609375 -3.648438 4.359375 -3.984375 C 4.117188 -4.316406 3.796875 -4.484375 3.390625 -4.484375 C 2.972656 -4.484375 2.640625 -4.34375 2.390625 -4.0625 C 2.140625 -3.78125 2.015625 -3.332031 2.015625 -2.71875 L 2.015625 -2.46875 C 2.015625 -1.90625 2.144531 -1.488281 2.40625 -1.21875 C 2.664062 -0.957031 2.976562 -0.828125 3.34375 -0.828125 Z M 3.34375 -0.828125 "/></g></g></g><g fill="#ff0074" fill-opacity="1"><g transform="translate(145.010651, 287.188078)"><g><path d="M 3.71875 0 L 3.625 -0.78125 L 3.359375 -0.203125 C 3.015625 0.0234375 2.578125 0.140625 2.046875 0.140625 C 1.554688 0.140625 1.144531 0.00390625 0.8125 -0.265625 C 0.488281 -0.546875 0.328125 -0.925781 0.328125 -1.40625 C 0.328125 -2 0.570312 -2.453125 1.0625 -2.765625 C 1.5625 -3.078125 2.296875 -3.234375 3.265625 -3.234375 L 3.59375 -3.234375 L 3.59375 -3.34375 C 3.59375 -3.5625 3.585938 -3.726562 3.578125 -3.84375 C 3.535156 -4.269531 3.265625 -4.484375 2.765625 -4.484375 C 2.210938 -4.484375 1.914062 -4.1875 1.875 -3.59375 L 0.53125 -3.578125 C 0.550781 -4.160156 0.769531 -4.617188 1.1875 -4.953125 C 1.613281 -5.285156 2.15625 -5.453125 2.8125 -5.453125 C 4.132812 -5.453125 4.84375 -4.929688 4.9375 -3.890625 C 4.957031 -3.640625 4.96875 -3.363281 4.96875 -3.0625 L 4.96875 -1.34375 C 4.96875 -0.9375 5 -0.488281 5.0625 0 Z M 2.5625 -0.828125 C 2.863281 -0.828125 3.109375 -0.925781 3.296875 -1.125 C 3.492188 -1.332031 3.59375 -1.609375 3.59375 -1.953125 L 3.59375 -2.390625 C 2.375 -2.472656 1.765625 -2.179688 1.765625 -1.515625 C 1.765625 -1.054688 2.03125 -0.828125 2.5625 -0.828125 Z M 2.5625 -0.828125 "/></g></g></g><g fill="#ff0074" fill-opacity="1"><g transform="translate(151.828426, 287.188078)"><g><path d="M 3.34375 -5.453125 C 3.488281 -5.453125 3.617188 -5.4375 3.734375 -5.40625 L 3.734375 -4.296875 C 3.140625 -4.335938 2.703125 -4.210938 2.421875 -3.921875 C 2.148438 -3.628906 2.015625 -3.132812 2.015625 -2.4375 L 2.015625 0 L 0.625 0 L 0.625 -5.3125 L 2.015625 -5.3125 L 2.015625 -4.34375 L 2.4375 -5.09375 C 2.6875 -5.332031 2.988281 -5.453125 3.34375 -5.453125 Z M 3.34375 -5.453125 "/></g></g></g><g fill="#ff0074" fill-opacity="1"><g transform="translate(156.826924, 287.188078)"><g><path d="M 5.453125 -2.765625 C 5.453125 -2.578125 5.445312 -2.421875 5.4375 -2.296875 L 1.65625 -2.296875 C 1.738281 -1.316406 2.148438 -0.828125 2.890625 -0.828125 C 3.191406 -0.828125 3.441406 -0.90625 3.640625 -1.0625 C 3.835938 -1.226562 3.957031 -1.453125 4 -1.734375 L 5.375 -1.734375 C 5.25 -1.117188 4.957031 -0.648438 4.5 -0.328125 C 4.050781 -0.015625 3.503906 0.140625 2.859375 0.140625 C 2.085938 0.140625 1.460938 -0.0976562 0.984375 -0.578125 C 0.503906 -1.054688 0.265625 -1.742188 0.265625 -2.640625 C 0.265625 -3.460938 0.515625 -4.132812 1.015625 -4.65625 C 1.515625 -5.1875 2.164062 -5.453125 2.96875 -5.453125 C 3.75 -5.453125 4.359375 -5.195312 4.796875 -4.6875 C 5.234375 -4.175781 5.453125 -3.535156 5.453125 -2.765625 Z M 2.90625 -4.484375 C 2.21875 -4.484375 1.816406 -4.054688 1.703125 -3.203125 L 4.046875 -3.203125 C 3.953125 -4.054688 3.570312 -4.484375 2.90625 -4.484375 Z M 2.90625 -4.484375 "/></g></g></g><g fill="#ff0074" fill-opacity="1"><g transform="translate(163.804644, 287.188078)"><g><path d="M 5.59375 -3.96875 C 5.613281 -3.726562 5.625 -3.40625 5.625 -3 L 5.625 0 L 4.25 0 L 4.25 -2.8125 C 4.25 -3.125 4.242188 -3.367188 4.234375 -3.546875 C 4.179688 -4.171875 3.835938 -4.484375 3.203125 -4.484375 C 2.847656 -4.484375 2.5625 -4.316406 2.34375 -3.984375 C 2.125 -3.648438 2.015625 -3.132812 2.015625 -2.4375 L 2.015625 0 L 0.625 0 L 0.625 -5.3125 L 2.015625 -5.3125 L 2.015625 -4.453125 L 2.421875 -5.09375 C 2.765625 -5.332031 3.191406 -5.453125 3.703125 -5.453125 C 4.265625 -5.453125 4.707031 -5.320312 5.03125 -5.0625 C 5.351562 -4.8125 5.539062 -4.445312 5.59375 -3.96875 Z M 5.59375 -3.96875 "/></g></g></g><g fill="#ff0074" fill-opacity="1"><g transform="translate(171.212192, 287.188078)"><g><path d="M 2.28125 -4.375 L 2.28125 -1.90625 C 2.28125 -1.6875 2.285156 -1.53125 2.296875 -1.4375 C 2.304688 -1.175781 2.378906 -1.003906 2.515625 -0.921875 C 2.648438 -0.847656 2.910156 -0.828125 3.296875 -0.859375 L 3.296875 0.046875 C 3.003906 0.0859375 2.695312 0.109375 2.375 0.109375 C 1.875 0.109375 1.515625 0.0234375 1.296875 -0.140625 C 1.078125 -0.316406 0.953125 -0.597656 0.921875 -0.984375 C 0.910156 -1.140625 0.90625 -1.394531 0.90625 -1.75 L 0.90625 -4.375 L 0.125 -4.375 L 0.125 -5.28125 L 0.90625 -5.28125 L 0.90625 -6.59375 L 2.28125 -6.59375 L 2.28125 -5.28125 L 3.375 -5.28125 L 3.375 -4.375 Z M 2.28125 -4.375 "/></g></g></g><g fill="#ff0074" fill-opacity="1"><g transform="translate(176.020765, 287.188078)"><g/></g></g><g fill="#ff0074" fill-opacity="1"><g transform="translate(179.159999, 287.188078)"><g><path d="M 6.609375 -4.046875 L 6.609375 -2.953125 L 5.671875 -2.953125 L 5.671875 -0.09375 C 4.890625 0.0625 4.101562 0.140625 3.3125 0.140625 C 1.457031 0.140625 0.53125 -0.492188 0.53125 -1.765625 C 0.53125 -2.222656 0.675781 -2.609375 0.96875 -2.921875 C 1.257812 -3.234375 1.660156 -3.4375 2.171875 -3.53125 C 1.785156 -3.632812 1.472656 -3.820312 1.234375 -4.09375 C 1.003906 -4.375 0.890625 -4.695312 0.890625 -5.0625 C 0.890625 -5.6875 1.117188 -6.171875 1.578125 -6.515625 C 2.035156 -6.867188 2.664062 -7.046875 3.46875 -7.046875 C 3.882812 -7.046875 4.25 -7.007812 4.5625 -6.9375 L 4.5625 -5.921875 C 4.207031 -5.984375 3.847656 -6.015625 3.484375 -6.015625 C 3.117188 -6.015625 2.835938 -5.929688 2.640625 -5.765625 C 2.441406 -5.597656 2.34375 -5.359375 2.34375 -5.046875 C 2.34375 -4.410156 2.675781 -4.078125 3.34375 -4.046875 C 3.457031 -4.046875 3.65625 -4.046875 3.9375 -4.046875 L 4.296875 -4.046875 L 4.296875 -4.96875 L 5.671875 -4.96875 L 5.671875 -4.046875 Z M 2 -1.9375 C 2 -1.5625 2.109375 -1.289062 2.328125 -1.125 C 2.546875 -0.96875 2.882812 -0.890625 3.34375 -0.890625 C 3.695312 -0.890625 4.015625 -0.914062 4.296875 -0.96875 L 4.296875 -2.953125 L 3.84375 -2.953125 C 3.601562 -2.953125 3.414062 -2.945312 3.28125 -2.9375 C 2.425781 -2.875 2 -2.539062 2 -1.9375 Z M 2 -1.9375 "/></g></g></g><g fill="#ff0074" fill-opacity="1"><g transform="translate(187.087338, 287.188078)"><g/></g></g><g fill="#ff0074" fill-opacity="1"><g transform="translate(190.226573, 287.188078)"><g><path d="M 3.1875 -7.046875 C 3.96875 -7.046875 4.566406 -6.847656 4.984375 -6.453125 C 5.398438 -6.054688 5.648438 -5.53125 5.734375 -4.875 L 4.3125 -4.875 C 4.28125 -5.226562 4.160156 -5.503906 3.953125 -5.703125 C 3.753906 -5.910156 3.476562 -6.015625 3.125 -6.015625 C 2.84375 -6.015625 2.609375 -5.941406 2.421875 -5.796875 C 2.242188 -5.660156 2.15625 -5.457031 2.15625 -5.1875 C 2.15625 -4.894531 2.265625 -4.664062 2.484375 -4.5 C 2.703125 -4.332031 3.082031 -4.1875 3.625 -4.0625 C 4.382812 -3.882812 4.941406 -3.617188 5.296875 -3.265625 C 5.648438 -2.910156 5.828125 -2.457031 5.828125 -1.90625 C 5.828125 -1.269531 5.578125 -0.769531 5.078125 -0.40625 C 4.585938 -0.0390625 3.988281 0.140625 3.28125 0.140625 C 2.4375 0.140625 1.765625 -0.0390625 1.265625 -0.40625 C 0.765625 -0.78125 0.484375 -1.328125 0.421875 -2.046875 L 1.828125 -2.046875 C 1.898438 -1.671875 2.066406 -1.382812 2.328125 -1.1875 C 2.585938 -0.988281 2.898438 -0.890625 3.265625 -0.890625 C 3.578125 -0.890625 3.84375 -0.96875 4.0625 -1.125 C 4.28125 -1.289062 4.390625 -1.503906 4.390625 -1.765625 C 4.390625 -2.054688 4.285156 -2.289062 4.078125 -2.46875 C 3.867188 -2.644531 3.515625 -2.796875 3.015625 -2.921875 C 2.234375 -3.109375 1.648438 -3.351562 1.265625 -3.65625 C 0.890625 -3.96875 0.703125 -4.421875 0.703125 -5.015625 C 0.703125 -5.628906 0.941406 -6.117188 1.421875 -6.484375 C 1.910156 -6.859375 2.5 -7.046875 3.1875 -7.046875 Z M 3.1875 -7.046875 "/></g></g></g><g fill="#ff0074" fill-opacity="1"><g transform="translate(197.504174, 287.188078)"><g><path d="M 5.453125 -2.765625 C 5.453125 -2.578125 5.445312 -2.421875 5.4375 -2.296875 L 1.65625 -2.296875 C 1.738281 -1.316406 2.148438 -0.828125 2.890625 -0.828125 C 3.191406 -0.828125 3.441406 -0.90625 3.640625 -1.0625 C 3.835938 -1.226562 3.957031 -1.453125 4 -1.734375 L 5.375 -1.734375 C 5.25 -1.117188 4.957031 -0.648438 4.5 -0.328125 C 4.050781 -0.015625 3.503906 0.140625 2.859375 0.140625 C 2.085938 0.140625 1.460938 -0.0976562 0.984375 -0.578125 C 0.503906 -1.054688 0.265625 -1.742188 0.265625 -2.640625 C 0.265625 -3.460938 0.515625 -4.132812 1.015625 -4.65625 C 1.515625 -5.1875 2.164062 -5.453125 2.96875 -5.453125 C 3.75 -5.453125 4.359375 -5.195312 4.796875 -4.6875 C 5.234375 -4.175781 5.453125 -3.535156 5.453125 -2.765625 Z M 2.90625 -4.484375 C 2.21875 -4.484375 1.816406 -4.054688 1.703125 -3.203125 L 4.046875 -3.203125 C 3.953125 -4.054688 3.570312 -4.484375 2.90625 -4.484375 Z M 2.90625 -4.484375 "/></g></g></g><g fill="#ff0074" fill-opacity="1"><g transform="translate(204.481888, 287.188078)"><g><path d="M 2.9375 -5.453125 C 3.632812 -5.453125 4.195312 -5.257812 4.625 -4.875 C 5.0625 -4.5 5.304688 -4.007812 5.359375 -3.40625 L 4 -3.40625 C 3.875 -4.125 3.507812 -4.484375 2.90625 -4.484375 C 2.53125 -4.484375 2.234375 -4.332031 2.015625 -4.03125 C 1.804688 -3.738281 1.703125 -3.296875 1.703125 -2.703125 C 1.703125 -2.078125 1.804688 -1.609375 2.015625 -1.296875 C 2.234375 -0.984375 2.523438 -0.828125 2.890625 -0.828125 C 3.160156 -0.828125 3.390625 -0.910156 3.578125 -1.078125 C 3.773438 -1.253906 3.90625 -1.507812 3.96875 -1.84375 L 5.34375 -1.84375 C 5.238281 -1.195312 4.957031 -0.703125 4.5 -0.359375 C 4.050781 -0.0234375 3.488281 0.140625 2.8125 0.140625 C 2.0625 0.140625 1.445312 -0.0976562 0.96875 -0.578125 C 0.5 -1.054688 0.265625 -1.738281 0.265625 -2.625 C 0.265625 -3.5 0.519531 -4.1875 1.03125 -4.6875 C 1.539062 -5.195312 2.175781 -5.453125 2.9375 -5.453125 Z M 2.9375 -5.453125 "/></g></g></g><g fill="#ff0074" fill-opacity="1"><g transform="translate(211.289668, 287.188078)"><g><path d="M 5.546875 -5.3125 L 5.546875 0 L 4.15625 0 L 4.15625 -0.90625 L 3.75 -0.21875 C 3.382812 0.0195312 2.957031 0.140625 2.46875 0.140625 C 1.945312 0.140625 1.519531 0.015625 1.1875 -0.234375 C 0.851562 -0.492188 0.65625 -0.816406 0.59375 -1.203125 C 0.5625 -1.429688 0.546875 -1.757812 0.546875 -2.1875 L 0.546875 -5.3125 L 1.921875 -5.3125 L 1.921875 -2.46875 C 1.921875 -2.21875 1.929688 -1.972656 1.953125 -1.734375 C 2.023438 -1.140625 2.367188 -0.84375 2.984375 -0.84375 C 3.347656 -0.84375 3.632812 -0.988281 3.84375 -1.28125 C 4.050781 -1.582031 4.15625 -2.023438 4.15625 -2.609375 L 4.15625 -5.3125 Z M 5.546875 -5.3125 "/></g></g></g><g fill="#ff0074" fill-opacity="1"><g transform="translate(218.667228, 287.188078)"><g><path d="M 3.34375 -5.453125 C 3.488281 -5.453125 3.617188 -5.4375 3.734375 -5.40625 L 3.734375 -4.296875 C 3.140625 -4.335938 2.703125 -4.210938 2.421875 -3.921875 C 2.148438 -3.628906 2.015625 -3.132812 2.015625 -2.4375 L 2.015625 0 L 0.625 0 L 0.625 -5.3125 L 2.015625 -5.3125 L 2.015625 -4.34375 L 2.4375 -5.09375 C 2.6875 -5.332031 2.988281 -5.453125 3.34375 -5.453125 Z M 3.34375 -5.453125 "/></g></g></g><g fill="#ff0074" fill-opacity="1"><g transform="translate(223.66572, 287.188078)"><g><path d="M 5.453125 -2.765625 C 5.453125 -2.578125 5.445312 -2.421875 5.4375 -2.296875 L 1.65625 -2.296875 C 1.738281 -1.316406 2.148438 -0.828125 2.890625 -0.828125 C 3.191406 -0.828125 3.441406 -0.90625 3.640625 -1.0625 C 3.835938 -1.226562 3.957031 -1.453125 4 -1.734375 L 5.375 -1.734375 C 5.25 -1.117188 4.957031 -0.648438 4.5 -0.328125 C 4.050781 -0.015625 3.503906 0.140625 2.859375 0.140625 C 2.085938 0.140625 1.460938 -0.0976562 0.984375 -0.578125 C 0.503906 -1.054688 0.265625 -1.742188 0.265625 -2.640625 C 0.265625 -3.460938 0.515625 -4.132812 1.015625 -4.65625 C 1.515625 -5.1875 2.164062 -5.453125 2.96875 -5.453125 C 3.75 -5.453125 4.359375 -5.195312 4.796875 -4.6875 C 5.234375 -4.175781 5.453125 -3.535156 5.453125 -2.765625 Z M 2.90625 -4.484375 C 2.21875 -4.484375 1.816406 -4.054688 1.703125 -3.203125 L 4.046875 -3.203125 C 3.953125 -4.054688 3.570312 -4.484375 2.90625 -4.484375 Z M 2.90625 -4.484375 "/></g></g></g><g fill="#ff0074" fill-opacity="1"><g transform="translate(230.643434, 287.188078)"><g/></g></g><g fill="#ff0074" fill-opacity="1"><g transform="translate(233.782663, 287.188078)"><g><path d="M 5.671875 -5.3125 L 3.609375 0 L 2.0625 0 L 0 -5.3125 L 1.53125 -5.3125 L 2.875 -1.046875 L 4.1875 -5.3125 Z M 5.671875 -5.3125 "/></g></g></g><g fill="#ff0074" fill-opacity="1"><g transform="translate(240.64042, 287.188078)"><g><path d="M 1 -4.671875 C 1.488281 -5.191406 2.164062 -5.453125 3.03125 -5.453125 C 3.894531 -5.453125 4.570312 -5.191406 5.0625 -4.671875 C 5.550781 -4.160156 5.796875 -3.488281 5.796875 -2.65625 C 5.796875 -1.832031 5.550781 -1.160156 5.0625 -0.640625 C 4.570312 -0.117188 3.894531 0.140625 3.03125 0.140625 C 2.164062 0.140625 1.488281 -0.117188 1 -0.640625 C 0.507812 -1.160156 0.265625 -1.832031 0.265625 -2.65625 C 0.265625 -3.488281 0.507812 -4.160156 1 -4.671875 Z M 2.046875 -1.3125 C 2.285156 -0.988281 2.613281 -0.828125 3.03125 -0.828125 C 3.445312 -0.828125 3.769531 -0.988281 4 -1.3125 C 4.238281 -1.632812 4.359375 -2.082031 4.359375 -2.65625 C 4.359375 -3.226562 4.238281 -3.675781 4 -4 C 3.769531 -4.320312 3.445312 -4.484375 3.03125 -4.484375 C 2.613281 -4.484375 2.285156 -4.320312 2.046875 -4 C 1.816406 -3.675781 1.703125 -3.226562 1.703125 -2.65625 C 1.703125 -2.082031 1.816406 -1.632812 2.046875 -1.3125 Z M 2.046875 -1.3125 "/></g></g></g><g fill="#ff0074" fill-opacity="1"><g transform="translate(247.898022, 287.188078)"><g><path d="M 2.28125 -4.375 L 2.28125 -1.90625 C 2.28125 -1.6875 2.285156 -1.53125 2.296875 -1.4375 C 2.304688 -1.175781 2.378906 -1.003906 2.515625 -0.921875 C 2.648438 -0.847656 2.910156 -0.828125 3.296875 -0.859375 L 3.296875 0.046875 C 3.003906 0.0859375 2.695312 0.109375 2.375 0.109375 C 1.875 0.109375 1.515625 0.0234375 1.296875 -0.140625 C 1.078125 -0.316406 0.953125 -0.597656 0.921875 -0.984375 C 0.910156 -1.140625 0.90625 -1.394531 0.90625 -1.75 L 0.90625 -4.375 L 0.125 -4.375 L 0.125 -5.28125 L 0.90625 -5.28125 L 0.90625 -6.59375 L 2.28125 -6.59375 L 2.28125 -5.28125 L 3.375 -5.28125 L 3.375 -4.375 Z M 2.28125 -4.375 "/></g></g></g><g fill="#ff0074" fill-opacity="1"><g transform="translate(252.706589, 287.188078)"><g><path d="M 0.765625 -7.09375 C 0.910156 -7.226562 1.09375 -7.296875 1.3125 -7.296875 C 1.539062 -7.296875 1.722656 -7.226562 1.859375 -7.09375 C 2.003906 -6.957031 2.078125 -6.78125 2.078125 -6.5625 C 2.078125 -6.34375 2.003906 -6.164062 1.859375 -6.03125 C 1.722656 -5.90625 1.539062 -5.84375 1.3125 -5.84375 C 1.09375 -5.84375 0.910156 -5.90625 0.765625 -6.03125 C 0.628906 -6.164062 0.5625 -6.34375 0.5625 -6.5625 C 0.5625 -6.78125 0.628906 -6.957031 0.765625 -7.09375 Z M 2.015625 0 L 0.625 0 L 0.625 -5.3125 L 2.015625 -5.3125 Z M 2.015625 0 "/></g></g></g><g fill="#ff0074" fill-opacity="1"><g transform="translate(256.565537, 287.188078)"><g><path d="M 5.59375 -3.96875 C 5.613281 -3.726562 5.625 -3.40625 5.625 -3 L 5.625 0 L 4.25 0 L 4.25 -2.8125 C 4.25 -3.125 4.242188 -3.367188 4.234375 -3.546875 C 4.179688 -4.171875 3.835938 -4.484375 3.203125 -4.484375 C 2.847656 -4.484375 2.5625 -4.316406 2.34375 -3.984375 C 2.125 -3.648438 2.015625 -3.132812 2.015625 -2.4375 L 2.015625 0 L 0.625 0 L 0.625 -5.3125 L 2.015625 -5.3125 L 2.015625 -4.453125 L 2.421875 -5.09375 C 2.765625 -5.332031 3.191406 -5.453125 3.703125 -5.453125 C 4.265625 -5.453125 4.707031 -5.320312 5.03125 -5.0625 C 5.351562 -4.8125 5.539062 -4.445312 5.59375 -3.96875 Z M 5.59375 -3.96875 "/></g></g></g><g fill="#ff0074" fill-opacity="1"><g transform="translate(263.973079, 287.188078)"><g><path d="M 5.796875 -5.3125 L 5.796875 -1.328125 C 5.796875 -0.835938 5.796875 -0.492188 5.796875 -0.296875 C 5.765625 0.515625 5.5 1.125 5 1.53125 C 4.507812 1.945312 3.832031 2.15625 2.96875 2.15625 C 2.195312 2.15625 1.59375 2 1.15625 1.6875 C 0.726562 1.375 0.484375 0.925781 0.421875 0.34375 L 0.40625 0.234375 L 1.75 0.234375 L 1.765625 0.328125 C 1.796875 0.578125 1.914062 0.769531 2.125 0.90625 C 2.34375 1.050781 2.628906 1.125 2.984375 1.125 C 3.421875 1.125 3.757812 1.015625 4 0.796875 C 4.25 0.585938 4.382812 0.269531 4.40625 -0.15625 C 4.414062 -0.28125 4.421875 -0.492188 4.421875 -0.796875 L 4.421875 -0.9375 L 4.015625 -0.34375 C 3.703125 -0.09375 3.265625 0.03125 2.703125 0.03125 C 1.960938 0.03125 1.367188 -0.207031 0.921875 -0.6875 C 0.484375 -1.175781 0.265625 -1.8125 0.265625 -2.59375 C 0.265625 -3.519531 0.507812 -4.226562 1 -4.71875 C 1.488281 -5.207031 2.09375 -5.453125 2.8125 -5.453125 C 3.363281 -5.453125 3.78125 -5.351562 4.0625 -5.15625 L 4.421875 -4.609375 L 4.421875 -5.3125 Z M 2.0625 -1.421875 C 2.300781 -1.097656 2.625 -0.9375 3.03125 -0.9375 C 3.445312 -0.9375 3.78125 -1.078125 4.03125 -1.359375 C 4.289062 -1.648438 4.421875 -2.097656 4.421875 -2.703125 L 4.421875 -2.859375 C 4.421875 -3.410156 4.289062 -3.816406 4.03125 -4.078125 C 3.769531 -4.347656 3.457031 -4.484375 3.09375 -4.484375 C 2.664062 -4.484375 2.328125 -4.332031 2.078125 -4.03125 C 1.828125 -3.738281 1.703125 -3.300781 1.703125 -2.71875 C 1.703125 -2.175781 1.820312 -1.742188 2.0625 -1.421875 Z M 2.0625 -1.421875 "/></g></g></g></svg>