<svg xmlns="http://www.w3.org/2000/svg" xmlns:xlink="http://www.w3.org/1999/xlink" width="500" zoomAndPan="magnify" viewBox="0 0 375 374.999991" height="500" preserveAspectRatio="xMidYMid meet" version="1.0"><defs><clipPath id="5601ee4d52"><path d="M 42.175781 31.480469 L 253 31.480469 L 253 242 L 42.175781 242 Z M 42.175781 31.480469 " clip-rule="nonzero"/></clipPath><clipPath id="3d926c0d15"><path d="M 122 116 L 332.984375 116 L 332.984375 326.230469 L 122 326.230469 Z M 122 116 " clip-rule="nonzero"/></clipPath></defs><g clip-path="url(#5601ee4d52)"><path fill="#5d51b4" d="M 202.457031 94.449219 C 197.316406 94.449219 192.375 92.550781 188.515625 89.152344 C 177.429688 79.410156 162.9375 73.46875 147.027344 73.46875 C 112.230469 73.46875 84.027344 101.6875 84.027344 136.484375 C 84.011719 171.28125 112.230469 199.472656 147.027344 199.472656 L 231.019531 199.472656 C 242.617188 199.472656 252.023438 208.878906 252.023438 220.476562 C 252.023438 232.074219 242.617188 241.480469 231.019531 241.480469 L 147.027344 241.480469 C 89.054688 241.476562 42.042969 194.464844 42.042969 136.476562 C 42.042969 78.480469 89.054688 31.507812 147.027344 31.480469 C 173.582031 31.492188 197.832031 41.363281 216.316406 57.617188 C 230.890625 70.425781 221.855469 94.449219 202.457031 94.449219 Z M 202.457031 94.449219 " fill-opacity="1" fill-rule="nonzero"/></g><g clip-path="url(#3d926c0d15)"><path fill="#09b7d3" d="M 172.546875 263.480469 C 177.679688 263.480469 182.621094 265.382812 186.480469 268.769531 C 197.5625 278.507812 212.042969 284.453125 227.960938 284.453125 C 262.855469 284.453125 291.113281 256.046875 290.949219 221.132812 C 290.789062 186.34375 262.054688 158.433594 227.265625 158.433594 L 143.96875 158.433594 C 132.371094 158.433594 122.972656 149.03125 122.972656 137.433594 C 122.972656 125.835938 132.371094 116.4375 143.96875 116.4375 L 227.96875 116.4375 C 285.933594 116.4375 332.964844 163.449219 332.964844 221.433594 C 332.964844 279.425781 285.941406 326.40625 227.96875 326.429688 C 201.414062 326.410156 177.171875 316.550781 158.691406 300.292969 C 144.113281 287.5 153.148438 263.480469 172.546875 263.480469 Z M 172.546875 263.480469 " fill-opacity="1" fill-rule="nonzero"/></g></svg>